# xmcd CD database file
#
# Track frame offsets:
#	150
#	16273
#	32701
#	49557
#	68162
#	88260
#	107215
#	125225
#	138515
#	151235
#	164748
#	181805
#	196860
#	210257
#	224588
#	245663
#	263071
#	279674
#	290600
#	309583
#	325758
#	337518
#
# Disc length: 4761 seconds
#
# Revision: 0
# Processed by: cddbd v1.5.2PL0 Copyright (c) Steve Scherf et al.
# Submitted via: CDex 1.51
#
DISCID=47129716
DTITLE=Enya - Greatest Hits CD1
DYEAR=2009
DGENRE=New Age
TTITLE0=May It Be
TTITLE1=Only Time
TTITLE2=Trains And Winter Rains
TTITLE3=It's In The Rain
TTITLE4=Orinoco Flow
TTITLE5=Storms In Africa
TTITLE6=Caribbean Blue
TTITLE7=Book Of Days
TTITLE8=The River Sings
TTITLE9=White Is In The Winter Night
TTITLE10=Anywhere Is
TTITLE11=Only If
TTITLE12=The Celts
TTITLE13=Amarantine
TTITLE14=China Roses
TTITLE15=One By One
TTITLE16=Shepherd Moons
TTITLE17=Watermark
TTITLE18=Paint The Sky With Stars
TTITLE19=On My Way Home
TTITLE20=A Day Without Rain
TTITLE21=The Memory Of Trees
EXTD=YEAR: 2009
EXTT0=
EXTT1=
EXTT2=
EXTT3=
EXTT4=
EXTT5=
EXTT6=
EXTT7=
EXTT8=
EXTT9=
EXTT10=
EXTT11=
EXTT12=
EXTT13=
EXTT14=
EXTT15=
EXTT16=
EXTT17=
EXTT18=
EXTT19=
EXTT20=
EXTT21=
PLAYORDER=
